<?xml version="1.0" encoding="UTF-8" standalone="no"?>
<!DOCTYPE svg PUBLIC "-//W3C//DTD SVG 1.1//EN" "http://www.w3.org/Graphics/SVG/1.1/DTD/svg11.dtd">
<svg width="100%" height="100%" viewBox="0 0 1024 277" version="1.1" xmlns="http://www.w3.org/2000/svg" xmlns:xlink="http://www.w3.org/1999/xlink" xml:space="preserve" xmlns:serif="http://www.serif.com/" style="fill-rule:evenodd;clip-rule:evenodd;stroke-linejoin:round;stroke-miterlimit:2;">
    <g transform="matrix(0.094098,0,0,-0.094098,50.1101,285.211)">
        <path d="M110,3031L110,130L133,135C168,143 495,196 710,229C817,246 934,269 970,280C1230,366 1397,549 1450,810C1476,936 1479,1309 1454,1428C1422,1590 1337,1708 1212,1766C1178,1782 1150,1797 1150,1800C1150,1803 1166,1814 1186,1825C1284,1877 1370,2000 1407,2140C1432,2233 1432,2548 1407,2638C1354,2833 1252,2936 1055,2997L965,3024L538,3028L110,3031ZM830,2639C900,2624 945,2583 965,2517C986,2444 986,2173 964,2100C931,1987 851,1944 658,1933L550,1927L550,2283C550,2613 551,2639 568,2643C603,2652 781,2650 830,2639ZM892,1530C938,1517 994,1454 1009,1397C1027,1334 1035,1010 1021,911C998,735 939,689 700,660C653,654 600,647 583,644L550,639L550,1529L598,1533C702,1541 857,1539 892,1530Z" style="fill:rgb(229,9,20);fill-rule:nonzero;"/>
        <path d="M1730,3030L1730,367L1793,374C2157,412 2389,434 2620,453L2895,476L2898,673L2900,870L2843,865C2756,857 2226,820 2201,820L2180,820L2180,3030L1730,3030Z" style="fill:rgb(229,9,20);fill-rule:nonzero;"/>
        <path d="M3415,3008C3408,2975 3282,2284 3205,1855C3129,1429 2970,487 2973,483C2979,478 3369,506 3375,512C3379,516 3398,624 3417,752C3437,880 3456,988 3459,992C3465,999 3982,1021 3989,1014C3991,1012 4009,906 4030,778L4066,545L4280,542C4398,541 4499,541 4505,544C4517,548 4487,736 4370,1395C4315,1702 4143,2635 4089,2918L4068,3030L3420,3030L3415,3008ZM3830,1977C3886,1642 3931,1367 3929,1365C3927,1364 3832,1360 3718,1358L3511,1355L3516,1380C3518,1394 3563,1664 3616,1980C3707,2533 3718,2595 3725,2588C3726,2586 3774,2311 3830,1977Z" style="fill:rgb(229,9,20);fill-rule:nonzero;"/>
        <path d="M4720,3030L4720,550L5160,550L5160,1616L5445,1612L5730,1607L5730,1957L5603,1963C5532,1967 5404,1970 5318,1970L5160,1970L5160,2690L5880,2690L5880,3030L4720,3030Z" style="fill:rgb(229,9,20);fill-rule:nonzero;"/>
        <path d="M6090,3030L6090,520L6133,520C6232,520 6976,473 7193,453L7260,447L7260,644C7260,792 7257,842 7248,845C7241,847 7102,856 6940,865C6778,874 6621,883 6593,886L6540,891L6540,3030L6090,3030Z" style="fill:rgb(229,9,20);fill-rule:nonzero;"/>
        <path d="M7450,1730C7450,697 7453,430 7463,430C7469,430 7561,421 7665,410C7770,399 7863,390 7873,390C7889,390 7890,459 7890,1710L7890,3030L7450,3030L7450,1730Z" style="fill:rgb(229,9,20);fill-rule:nonzero;"/>
        <path d="M8145,3013C8169,2955 8451,2177 8518,1983L8599,1751L8504,1488C8313,961 8107,370 8112,365C8114,363 8196,352 8295,340C8394,328 8487,316 8503,313C8523,309 8530,311 8530,323C8530,331 8609,578 8706,871C8820,1215 8885,1399 8890,1389C8907,1359 9154,536 9220,292C9238,226 9246,209 9264,205C9312,194 9704,131 9707,134C9715,142 9495,869 9336,1359L9222,1713L9362,2114C9439,2335 9539,2623 9585,2755C9631,2887 9671,3003 9675,3013C9682,3029 9670,3030 9475,3028L9268,3025L9236,2935C9218,2886 9144,2668 9070,2453C8996,2237 8934,2060 8930,2060C8927,2060 8853,2277 8764,2543L8603,3025L8371,3028C8151,3030 8138,3029 8145,3013Z" style="fill:rgb(229,9,20);fill-rule:nonzero;"/>
    </g>
</svg>
